<?xml version="1.0" standalone="no"?><!DOCTYPE svg PUBLIC "-//W3C//DTD SVG 1.1//EN" "http://www.w3.org/Graphics/SVG/1.1/DTD/svg11.dtd"><svg t="1671673281420" class="icon" viewBox="0 0 1024 1024" version="1.1" xmlns="http://www.w3.org/2000/svg" p-id="3167" xmlns:xlink="http://www.w3.org/1999/xlink" width="32" height="32"><path d="M756.681456 1023.931507H182.877528A118.779068 118.779068 0 0 1 64.235446 905.289425v-786.647343A118.721991 118.721991 0 0 1 182.877528 0h693.872957a83.128225 83.128225 0 0 1 83.0369 83.0369v724.078571a28.53894 28.53894 0 0 1-57.07788 0V83.0369A25.981851 25.981851 0 0 0 876.750485 57.07788H182.877528A61.64411 61.64411 0 0 0 121.313326 118.642082v786.647343a61.64411 61.64411 0 0 0 61.564202 61.564201h573.803928a28.53894 28.53894 0 1 1 0 57.077881z" fill="#4070DB" p-id="3168"></path><path d="M876.750485 1024h-696.350137a116.187733 116.187733 0 0 1 0-232.375465H931.248445a28.53894 28.53894 0 0 1 28.53894 28.53894v120.799625a83.128225 83.128225 0 0 1-83.0369 83.0369zM180.423179 848.759493a59.109853 59.109853 0 0 0 0 118.219705h696.350137a25.981851 25.981851 0 0 0 25.95902-25.95902v-92.260685z" fill="#4070DB" p-id="3169"></path><path d="M368.266482 245.377807h439.522508" fill="#FFFFFF" p-id="3170"></path><path d="M807.78899 291.051526h-439.499676a45.662304 45.662304 0 0 1 0-91.324608h439.499676a45.662304 45.662304 0 0 1 0 91.324608z" fill="#4070DB" p-id="3171"></path><path d="M418.129718 428.643464h339.784621" fill="#FFFFFF" p-id="3172"></path><path d="M757.914339 474.328599H418.129718a45.662304 45.662304 0 0 1 0-91.324608h339.784621a45.662304 45.662304 0 0 1 0 91.324608z" fill="#4070DB" p-id="3173"></path><path d="M368.266482 611.909121h439.522508" fill="#FFFFFF" p-id="3174"></path><path d="M807.78899 657.571425h-439.499676a45.662304 45.662304 0 1 1 0-91.324608h439.499676a45.662304 45.662304 0 0 1 0 91.324608z" fill="#4070DB" p-id="3175"></path><path d="M240.434862 28.53894v783.622216" fill="#FFFFFF" p-id="3176"></path><path d="M240.434862 840.768589a28.53894 28.53894 0 0 1-28.53894-28.53894V28.53894a28.53894 28.53894 0 1 1 57.07788 0v783.690709a28.53894 28.53894 0 0 1-28.53894 28.53894z" fill="#4070DB" p-id="3177"></path></svg>